<?xml version="1.0" encoding="UTF-8" standalone="no" ?>
<!DOCTYPE svg PUBLIC "-//W3C//DTD SVG 1.1//EN" "http://www.w3.org/Graphics/SVG/1.1/DTD/svg11.dtd">
<svg width="407mm" xmlns="http://www.w3.org/2000/svg" height="250mm" version="1.1" viewBox="0 0 1539 948" xmlns:xlink="http://www.w3.org/1999/xlink">
   <polyline fill="none" points="313,228 454,228" stroke="#800040" stroke-width="1"/>
   <polyline fill="none" points="326,234 326,223" stroke="#800040" stroke-width="1"/>
   <polyline fill="none" points="467,238 441,228 467,219 467,238" stroke="#800040" stroke-width="1"/>
   <polyline fill="none" points="441,223 441,234" stroke="#800040" stroke-width="1"/>
   <text x="383" y="222" fill="#000000" font-size="10" font-family="Arial" text-anchor="middle">tiene</text>
   <polyline fill="none" points="598,331 598,428" stroke="#800040" stroke-width="1"/>
   <ellipse cx="597" cy="341" rx="3" ry="3" fill="#ffffff" stroke="#800040" stroke-width="1"/>
   <polyline fill="none" points="588,441 598,414 607,441 588,441" stroke="#800040" stroke-width="1"/>
   <ellipse cx="597" cy="410" rx="3" ry="3" fill="#ffffff" stroke="#800040" stroke-width="1"/>
   <text x="597" y="382" fill="#000000" font-size="10" font-family="Arial" text-anchor="middle">contrata</text>
   <polyline fill="none" points="454,319 329,319" stroke="#800040" stroke-width="1"/>
   <polyline fill="none" points="467,328 441,319 467,309 467,328" stroke="#800040" stroke-width="1"/>
   <polyline fill="none" points="441,313 441,324" stroke="#800040" stroke-width="1"/>
   <polyline fill="none" points="342,324 342,313" stroke="#800040" stroke-width="1"/>
   <text x="392" y="313" fill="#000000" font-size="10" font-family="Arial" text-anchor="middle">pertenece</text>
   <polyline fill="none" points="428,519 313,519" stroke="#800040" stroke-width="1"/>
   <polyline fill="none" points="441,528 414,519 441,510 441,528" stroke="#800040" stroke-width="1"/>
   <polyline fill="none" points="414,514 414,525" stroke="#800040" stroke-width="1"/>
   <polyline fill="none" points="327,525 327,514" stroke="#800040" stroke-width="1"/>
   <text x="372" y="511" fill="#000000" font-size="10" font-family="Arial" text-anchor="middle">pertenece</text>
   <polyline fill="none" points="593,215 593,79" stroke="#800040" stroke-width="1"/>
   <polyline fill="none" points="584,228 593,201 602,228 584,228" stroke="#800040" stroke-width="1"/>
   <polyline fill="none" points="599,201 588,201" stroke="#800040" stroke-width="1"/>
   <polyline fill="none" points="588,92 599,92" stroke="#800040" stroke-width="1"/>
   <text x="594" y="147" fill="#000000" font-size="10" font-family="Arial" text-anchor="middle">ubicadas</text>
   <path d="M1376,204 L1376,49 A8,8 0 0,0 1368,41 L725,41" fill="none" stroke="#800040" stroke-width="1"/>
   <polyline fill="none" points="1367,217 1376,190 1386,217 1367,217" stroke="#800040" stroke-width="1"/>
   <ellipse cx="1376" cy="186" rx="3" ry="3" fill="#ffffff" stroke="#800040" stroke-width="1"/>
   <polyline fill="none" points="738,46 738,35" stroke="#800040" stroke-width="1"/>
   <text x="1376" y="102" fill="#000000" font-size="10" font-family="Arial" text-anchor="middle">ubicado</text>
   <polyline fill="none" points="598,674 598,595" stroke="#800040" stroke-width="1"/>
   <polyline fill="none" points="603,661 592,661" stroke="#800040" stroke-width="1"/>
   <polyline fill="none" points="607,582 598,609 588,582 607,582" stroke="#800040" stroke-width="1"/>
   <polyline fill="none" points="592,609 603,609" stroke="#800040" stroke-width="1"/>
   <text x="598" y="638" fill="#000000" font-size="10" font-family="Arial" text-anchor="middle">asignado</text>
   <polyline fill="none" points="597,777 597,861" stroke="#800040" stroke-width="1"/>
   <polyline fill="none" points="606,764 597,790 587,764 606,764" stroke="#800040" stroke-width="1"/>
   <polyline fill="none" points="591,790 602,790" stroke="#800040" stroke-width="1"/>
   <polyline fill="none" points="602,847 591,847" stroke="#800040" stroke-width="1"/>
   <text x="596" y="827" fill="#000000" font-size="10" font-family="Arial" text-anchor="middle">tiene</text>
   <polyline fill="none" points="738,730 880,730" stroke="#800040" stroke-width="1"/>
   <polyline fill="none" points="751,735 751,724" stroke="#800040" stroke-width="1"/>
   <polygon fill="#ffffff" points="866,737 853,730 866,723" stroke="#800040" stroke-width="1" stroke-linejoin="miter"/>
   <polyline fill="none" points="880,733 866,733" stroke="#800040" stroke-width="1"/>
   <polyline fill="none" points="880,727 866,727" stroke="#800040" stroke-width="1"/>
   <ellipse cx="849" cy="729" rx="3" ry="3" fill="#ffffff" stroke="#800040" stroke-width="1"/>
   <text x="801" y="719" fill="#000000" font-size="10" font-family="Arial" text-anchor="middle">necesita</text>
   <polyline fill="none" points="1013,775 1013,856" stroke="#800040" stroke-width="1"/>
   <polygon fill="#ffffff" points="1019,788 1013,802 1006,788" stroke="#800040" stroke-width="1" stroke-linejoin="miter"/>
   <polyline fill="none" points="1016,775 1016,788" stroke="#800040" stroke-width="1"/>
   <polyline fill="none" points="1009,775 1009,788" stroke="#800040" stroke-width="1"/>
   <ellipse cx="1012" cy="805" rx="3" ry="3" fill="#ffffff" stroke="#800040" stroke-width="1"/>
   <polyline fill="none" points="1018,843 1007,843" stroke="#800040" stroke-width="1"/>
   <text x="1013" y="829" fill="#000000" font-size="10" font-family="Arial" text-anchor="middle">necesita</text>
   <polyline fill="none" points="740,271 848,271" stroke="#800040" stroke-width="1"/>
   <polyline fill="none" points="753,276 753,265" stroke="#800040" stroke-width="1"/>
   <polygon fill="#ffffff" points="835,277 821,271 835,264" stroke="#800040" stroke-width="1" stroke-linejoin="miter"/>
   <polyline fill="none" points="848,274 835,274" stroke="#800040" stroke-width="1"/>
   <polyline fill="none" points="848,268 835,268" stroke="#800040" stroke-width="1"/>
   <ellipse cx="817" cy="270" rx="3" ry="3" fill="#ffffff" stroke="#800040" stroke-width="1"/>
   <text x="789" y="265" fill="#000000" font-size="10" font-family="Arial" text-anchor="middle">realizan</text>
   <polyline fill="none" points="959,316 959,471" stroke="#800040" stroke-width="1"/>
   <polygon fill="#ffffff" points="965,329 959,342 952,329" stroke="#800040" stroke-width="1" stroke-linejoin="miter"/>
   <polyline fill="none" points="962,316 962,329" stroke="#800040" stroke-width="1"/>
   <polyline fill="none" points="955,316 955,329" stroke="#800040" stroke-width="1"/>
   <polyline fill="none" points="953,342 964,342" stroke="#800040" stroke-width="1"/>
   <polyline fill="none" points="964,458 953,458" stroke="#800040" stroke-width="1"/>
   <text x="958" y="407" fill="#000000" font-size="10" font-family="Arial" text-anchor="middle">realizan</text>
   <polyline fill="none" points="1079,512 1216,512" stroke="#800040" stroke-width="1"/>
   <polyline fill="none" points="1092,517 1092,506" stroke="#800040" stroke-width="1"/>
   <polygon fill="#ffffff" points="1203,519 1189,512 1203,505" stroke="#800040" stroke-width="1" stroke-linejoin="miter"/>
   <polyline fill="none" points="1216,515 1203,515" stroke="#800040" stroke-width="1"/>
   <polyline fill="none" points="1216,509 1203,509" stroke="#800040" stroke-width="1"/>
   <polyline fill="none" points="1189,506 1189,517" stroke="#800040" stroke-width="1"/>
   <text x="1143" y="501" fill="#000000" font-size="10" font-family="Arial" text-anchor="middle">incluye</text>
   <polyline fill="none" points="1336,557 1336,683" stroke="#800040" stroke-width="1"/>
   <polygon fill="#ffffff" points="1343,570 1336,584 1329,570" stroke="#800040" stroke-width="1" stroke-linejoin="miter"/>
   <polyline fill="none" points="1339,557 1339,570" stroke="#800040" stroke-width="1"/>
   <polyline fill="none" points="1333,557 1333,570" stroke="#800040" stroke-width="1"/>
   <polyline fill="none" points="1331,584 1342,584" stroke="#800040" stroke-width="1"/>
   <polyline fill="none" points="1342,670 1331,670" stroke="#800040" stroke-width="1"/>
   <text x="1336" y="634" fill="#000000" font-size="10" font-family="Arial" text-anchor="middle">incluye</text>
   <polyline fill="none" points="1216,271 1070,271" stroke="#800040" stroke-width="1"/>
   <polyline fill="none" points="1203,265 1203,276" stroke="#800040" stroke-width="1"/>
   <polyline fill="none" points="1056,261 1083,271 1056,280 1056,261" stroke="#800040" stroke-width="1"/>
   <ellipse cx="1086" cy="270" rx="3" ry="3" fill="#ffffff" stroke="#800040" stroke-width="1"/>
   <text x="1146" y="265" fill="#000000" font-size="10" font-family="Arial" text-anchor="middle">solicita</text>
   <polyline fill="none" points="959,150 959,226" stroke="#800040" stroke-width="1"/>
   <polyline fill="none" points="953,163 964,163" stroke="#800040" stroke-width="1"/>
   <polyline fill="none" points="950,239 959,212 968,239 950,239" stroke="#800040" stroke-width="1"/>
   <polyline fill="none" points="964,212 953,212" stroke="#800040" stroke-width="1"/>
   <text x="958" y="191" fill="#000000" font-size="10" font-family="Arial" text-anchor="middle">tiene</text>
   <polyline fill="none" points="312,41 461,41" stroke="#800040" stroke-width="1"/>
   <polyline fill="none" points="326,46 326,35" stroke="#800040" stroke-width="1"/>
   <polyline fill="none" points="474,50 448,41 474,31 474,50" stroke="#800040" stroke-width="1"/>
   <polyline fill="none" points="448,35 448,46" stroke="#800040" stroke-width="1"/>
   <text x="386" y="35" fill="#000000" font-size="10" font-family="Arial" text-anchor="middle">incluye</text>
   <defs>
      <linearGradient id="Gradient1" x1="0%" x2="100%" y1="0%" y2="100%" gradientUnits="objectBoundingBox">
         <stop offset="5%" stop-color="#ffffff"/>
         <stop offset="95%" stop-color="#e9ca83"/>
      </linearGradient>
   </defs>
   <rect x="40" y="190" fill="url(#Gradient1)" width="273" height="77" stroke="#808040" stroke-width="1"/>
   <text x="176" y="201" fill="#000000" font-size="10" font-family="Arial" text-anchor="middle">empresa</text>
   <line x1="40" x2="313" y1="207" y2="207" stroke="#808040" stroke-width="1"/>
   <text x="45" y="217" fill="#000000" font-size="10" font-family="Arial" text-decoration="underline">id_empresa</text>
   <text x="45" y="230" fill="#000000" font-size="10" font-family="Arial">nombre_empresa</text>
   <text x="45" y="243" fill="#000000" font-size="10" font-family="Arial">ruc_empresa</text>
   <text x="135" y="217" fill="#000000" font-size="10" font-family="Arial" text-decoration="underline">&lt;pi&gt;</text>
   <text x="164" y="217" fill="#000000" font-size="10" font-family="Arial" text-decoration="underline">Serial</text>
   <text x="164" y="230" fill="#000000" font-size="10" font-family="Arial">Variable characters (75)</text>
   <text x="164" y="243" fill="#000000" font-size="10" font-family="Arial">Variable characters (15)</text>
   <text x="283" y="217" fill="#000000" font-size="10" font-family="Arial" text-decoration="underline">&lt;M&gt;</text>
   <text x="283" y="230" fill="#000000" font-size="10" font-family="Arial">&lt;M&gt;</text>
   <text x="283" y="243" fill="#000000" font-size="10" font-family="Arial">&lt;M&gt;</text>
   <line x1="40" x2="313" y1="250" y2="250" stroke="#808040" stroke-width="1"/>
   <text x="45" y="260" fill="#000000" font-size="10" font-family="Arial">Identifier_1</text>
   <text x="107" y="260" fill="#000000" font-size="10" font-family="Arial">&lt;pi&gt;</text>
   <defs>
      <linearGradient id="Gradient2" x1="0%" x2="100%" y1="0%" y2="100%" gradientUnits="objectBoundingBox">
         <stop offset="5%" stop-color="#ffffff"/>
         <stop offset="95%" stop-color="#e9ca83"/>
      </linearGradient>
   </defs>
   <rect x="454" y="215" fill="url(#Gradient2)" width="286" height="116" stroke="#808040" stroke-width="1"/>
   <text x="597" y="226" fill="#000000" font-size="10" font-family="Arial" text-anchor="middle">sucursal</text>
   <line x1="454" x2="740" y1="232" y2="232" stroke="#808040" stroke-width="1"/>
   <text x="459" y="242" fill="#000000" font-size="10" font-family="Arial" text-decoration="underline">id_sucursal</text>
   <text x="459" y="255" fill="#000000" font-size="10" font-family="Arial">id_tipo_sucursal</text>
   <text x="459" y="268" fill="#000000" font-size="10" font-family="Arial">id_ciudad</text>
   <text x="459" y="281" fill="#000000" font-size="10" font-family="Arial">id_empresa</text>
   <text x="459" y="294" fill="#000000" font-size="10" font-family="Arial">telefono_sucursal</text>
   <text x="459" y="307" fill="#000000" font-size="10" font-family="Arial">direccion_sucursal</text>
   <text x="553" y="242" fill="#000000" font-size="10" font-family="Arial" text-decoration="underline">&lt;pi&gt;</text>
   <text x="553" y="255" fill="#000000" font-size="10" font-family="Arial">&lt;fi2&gt;</text>
   <text x="553" y="268" fill="#000000" font-size="10" font-family="Arial">&lt;fi3&gt;</text>
   <text x="553" y="281" fill="#000000" font-size="10" font-family="Arial">&lt;fi1&gt;</text>
   <text x="585" y="242" fill="#000000" font-size="10" font-family="Arial" text-decoration="underline">Serial</text>
   <text x="585" y="255" fill="#000000" font-size="10" font-family="Arial">Integer</text>
   <text x="585" y="268" fill="#000000" font-size="10" font-family="Arial">Integer</text>
   <text x="585" y="281" fill="#000000" font-size="10" font-family="Arial">Integer</text>
   <text x="585" y="294" fill="#000000" font-size="10" font-family="Arial">Variable characters (10)</text>
   <text x="585" y="307" fill="#000000" font-size="10" font-family="Arial">Variable characters (250)</text>
   <text x="710" y="242" fill="#000000" font-size="10" font-family="Arial" text-decoration="underline">&lt;M&gt;</text>
   <text x="710" y="255" fill="#000000" font-size="10" font-family="Arial">&lt;M&gt;</text>
   <text x="710" y="268" fill="#000000" font-size="10" font-family="Arial">&lt;M&gt;</text>
   <text x="710" y="281" fill="#000000" font-size="10" font-family="Arial">&lt;M&gt;</text>
   <text x="710" y="294" fill="#000000" font-size="10" font-family="Arial">&lt;M&gt;</text>
   <text x="710" y="307" fill="#000000" font-size="10" font-family="Arial">&lt;M&gt;</text>
   <line x1="454" x2="740" y1="314" y2="314" stroke="#808040" stroke-width="1"/>
   <text x="459" y="324" fill="#000000" font-size="10" font-family="Arial">Identifier_1</text>
   <text x="521" y="324" fill="#000000" font-size="10" font-family="Arial">&lt;pi&gt;</text>
   <defs>
      <linearGradient id="Gradient3" x1="0%" x2="100%" y1="0%" y2="100%" gradientUnits="objectBoundingBox">
         <stop offset="5%" stop-color="#ffffff"/>
         <stop offset="95%" stop-color="#e9ca83"/>
      </linearGradient>
   </defs>
   <rect x="18" y="280" fill="url(#Gradient3)" width="311" height="77" stroke="#808040" stroke-width="1"/>
   <text x="173" y="291" fill="#000000" font-size="10" font-family="Arial" text-anchor="middle">tipo_sucursal</text>
   <line x1="18" x2="329" y1="297" y2="297" stroke="#808040" stroke-width="1"/>
   <text x="22" y="307" fill="#000000" font-size="10" font-family="Arial" text-decoration="underline">id_tipo_sucursal</text>
   <text x="22" y="320" fill="#000000" font-size="10" font-family="Arial">nombre_tipo_empleado</text>
   <text x="22" y="333" fill="#000000" font-size="10" font-family="Arial">detalle_tipo_empleado</text>
   <text x="144" y="307" fill="#000000" font-size="10" font-family="Arial" text-decoration="underline">&lt;pi&gt;</text>
   <text x="173" y="307" fill="#000000" font-size="10" font-family="Arial" text-decoration="underline">Serial</text>
   <text x="173" y="320" fill="#000000" font-size="10" font-family="Arial">Variable characters (25)</text>
   <text x="173" y="333" fill="#000000" font-size="10" font-family="Arial">Variable characters (150)</text>
   <text x="298" y="307" fill="#000000" font-size="10" font-family="Arial" text-decoration="underline">&lt;M&gt;</text>
   <text x="298" y="320" fill="#000000" font-size="10" font-family="Arial">&lt;M&gt;</text>
   <text x="298" y="333" fill="#000000" font-size="10" font-family="Arial">&lt;M&gt;</text>
   <line x1="18" x2="329" y1="340" y2="340" stroke="#808040" stroke-width="1"/>
   <text x="22" y="350" fill="#000000" font-size="10" font-family="Arial">Identifier_1</text>
   <text x="84" y="350" fill="#000000" font-size="10" font-family="Arial">&lt;pi&gt;</text>
   <defs>
      <linearGradient id="Gradient4" x1="0%" x2="100%" y1="0%" y2="100%" gradientUnits="objectBoundingBox">
         <stop offset="5%" stop-color="#ffffff"/>
         <stop offset="95%" stop-color="#e9ca83"/>
      </linearGradient>
   </defs>
   <rect x="428" y="428" fill="url(#Gradient4)" width="340" height="167" stroke="#808040" stroke-width="1"/>
   <text x="598" y="439" fill="#000000" font-size="10" font-family="Arial" text-anchor="middle">empleado</text>
   <line x1="428" x2="768" y1="445" y2="445" stroke="#808040" stroke-width="1"/>
   <text x="432" y="455" fill="#000000" font-size="10" font-family="Arial" text-decoration="underline">id_empleado</text>
   <text x="432" y="468" fill="#000000" font-size="10" font-family="Arial">id_sucursal</text>
   <text x="432" y="481" fill="#000000" font-size="10" font-family="Arial">id_tipo_empleado</text>
   <text x="432" y="493" fill="#000000" font-size="10" font-family="Arial">id_vehiculo</text>
   <text x="432" y="506" fill="#000000" font-size="10" font-family="Arial">nombre_empleado</text>
   <text x="432" y="519" fill="#000000" font-size="10" font-family="Arial">apellido_empleado</text>
   <text x="432" y="532" fill="#000000" font-size="10" font-family="Arial">telefono_empleado</text>
   <text x="432" y="545" fill="#000000" font-size="10" font-family="Arial">direccion_empleado</text>
   <text x="432" y="558" fill="#000000" font-size="10" font-family="Arial">fecha_nacimiento_empleado</text>
   <text x="432" y="571" fill="#000000" font-size="10" font-family="Arial">fecha_ingreso_empleado</text>
   <text x="579" y="455" fill="#000000" font-size="10" font-family="Arial" text-decoration="underline">&lt;pi&gt;</text>
   <text x="579" y="468" fill="#000000" font-size="10" font-family="Arial">&lt;fi1&gt;</text>
   <text x="579" y="481" fill="#000000" font-size="10" font-family="Arial">&lt;fi3&gt;</text>
   <text x="579" y="493" fill="#000000" font-size="10" font-family="Arial">&lt;fi2&gt;</text>
   <text x="611" y="455" fill="#000000" font-size="10" font-family="Arial" text-decoration="underline">Serial</text>
   <text x="611" y="468" fill="#000000" font-size="10" font-family="Arial">Integer</text>
   <text x="611" y="481" fill="#000000" font-size="10" font-family="Arial">Integer</text>
   <text x="611" y="493" fill="#000000" font-size="10" font-family="Arial">Integer</text>
   <text x="611" y="506" fill="#000000" font-size="10" font-family="Arial">Variable characters (30)</text>
   <text x="611" y="519" fill="#000000" font-size="10" font-family="Arial">Variable characters (15)</text>
   <text x="611" y="532" fill="#000000" font-size="10" font-family="Arial">Variable characters (10)</text>
   <text x="611" y="545" fill="#000000" font-size="10" font-family="Arial">Variable characters (250)</text>
   <text x="611" y="558" fill="#000000" font-size="10" font-family="Arial">Date</text>
   <text x="611" y="571" fill="#000000" font-size="10" font-family="Arial">Date</text>
   <text x="736" y="455" fill="#000000" font-size="10" font-family="Arial" text-decoration="underline">&lt;M&gt;</text>
   <text x="736" y="481" fill="#000000" font-size="10" font-family="Arial">&lt;M&gt;</text>
   <text x="736" y="493" fill="#000000" font-size="10" font-family="Arial">&lt;M&gt;</text>
   <text x="736" y="506" fill="#000000" font-size="10" font-family="Arial">&lt;M&gt;</text>
   <text x="736" y="519" fill="#000000" font-size="10" font-family="Arial">&lt;M&gt;</text>
   <text x="736" y="532" fill="#000000" font-size="10" font-family="Arial">&lt;M&gt;</text>
   <text x="736" y="545" fill="#000000" font-size="10" font-family="Arial">&lt;M&gt;</text>
   <text x="736" y="558" fill="#000000" font-size="10" font-family="Arial">&lt;M&gt;</text>
   <text x="736" y="571" fill="#000000" font-size="10" font-family="Arial">&lt;M&gt;</text>
   <line x1="428" x2="768" y1="578" y2="578" stroke="#808040" stroke-width="1"/>
   <text x="432" y="588" fill="#000000" font-size="10" font-family="Arial">Identifier_1</text>
   <text x="494" y="588" fill="#000000" font-size="10" font-family="Arial">&lt;pi&gt;</text>
   <defs>
      <linearGradient id="Gradient5" x1="0%" x2="100%" y1="0%" y2="100%" gradientUnits="objectBoundingBox">
         <stop offset="5%" stop-color="#ffffff"/>
         <stop offset="95%" stop-color="#e9ca83"/>
      </linearGradient>
   </defs>
   <rect x="2" y="481" fill="url(#Gradient5)" width="311" height="77" stroke="#808040" stroke-width="1"/>
   <text x="157" y="492" fill="#000000" font-size="10" font-family="Arial" text-anchor="middle">tipo_empleado</text>
   <line x1="2" x2="313" y1="498" y2="498" stroke="#808040" stroke-width="1"/>
   <text x="7" y="508" fill="#000000" font-size="10" font-family="Arial" text-decoration="underline">id_tipo_empleado</text>
   <text x="7" y="521" fill="#000000" font-size="10" font-family="Arial">nombre_tipo_empleado</text>
   <text x="7" y="534" fill="#000000" font-size="10" font-family="Arial">detalle_tipo_empleado</text>
   <text x="129" y="508" fill="#000000" font-size="10" font-family="Arial" text-decoration="underline">&lt;pi&gt;</text>
   <text x="158" y="508" fill="#000000" font-size="10" font-family="Arial" text-decoration="underline">Serial</text>
   <text x="158" y="521" fill="#000000" font-size="10" font-family="Arial">Variable characters (25)</text>
   <text x="158" y="534" fill="#000000" font-size="10" font-family="Arial">Variable characters (150)</text>
   <text x="283" y="508" fill="#000000" font-size="10" font-family="Arial" text-decoration="underline">&lt;M&gt;</text>
   <text x="283" y="521" fill="#000000" font-size="10" font-family="Arial">&lt;M&gt;</text>
   <text x="283" y="534" fill="#000000" font-size="10" font-family="Arial">&lt;M&gt;</text>
   <line x1="2" x2="313" y1="541" y2="541" stroke="#808040" stroke-width="1"/>
   <text x="7" y="551" fill="#000000" font-size="10" font-family="Arial">Identifier_1</text>
   <text x="69" y="551" fill="#000000" font-size="10" font-family="Arial">&lt;pi&gt;</text>
   <defs>
      <linearGradient id="Gradient6" x1="0%" x2="100%" y1="0%" y2="100%" gradientUnits="objectBoundingBox">
         <stop offset="5%" stop-color="#ffffff"/>
         <stop offset="95%" stop-color="#e9ca83"/>
      </linearGradient>
   </defs>
   <rect x="461" y="2" fill="url(#Gradient6)" width="264" height="77" stroke="#808040" stroke-width="1"/>
   <text x="593" y="13" fill="#000000" font-size="10" font-family="Arial" text-anchor="middle">ciudad</text>
   <line x1="461" x2="725" y1="19" y2="19" stroke="#808040" stroke-width="1"/>
   <text x="466" y="29" fill="#000000" font-size="10" font-family="Arial" text-decoration="underline">id_ciudad</text>
   <text x="466" y="42" fill="#000000" font-size="10" font-family="Arial">id_provincia</text>
   <text x="466" y="55" fill="#000000" font-size="10" font-family="Arial">nombre_ciudad</text>
   <text x="548" y="29" fill="#000000" font-size="10" font-family="Arial" text-decoration="underline">&lt;pi&gt;</text>
   <text x="548" y="42" fill="#000000" font-size="10" font-family="Arial">&lt;fi&gt;</text>
   <text x="577" y="29" fill="#000000" font-size="10" font-family="Arial" text-decoration="underline">Serial</text>
   <text x="577" y="42" fill="#000000" font-size="10" font-family="Arial">Integer</text>
   <text x="577" y="55" fill="#000000" font-size="10" font-family="Arial">Variable characters (50)</text>
   <text x="696" y="29" fill="#000000" font-size="10" font-family="Arial" text-decoration="underline">&lt;M&gt;</text>
   <text x="696" y="42" fill="#000000" font-size="10" font-family="Arial">&lt;M&gt;</text>
   <text x="696" y="55" fill="#000000" font-size="10" font-family="Arial">&lt;M&gt;</text>
   <line x1="461" x2="725" y1="62" y2="62" stroke="#808040" stroke-width="1"/>
   <text x="466" y="72" fill="#000000" font-size="10" font-family="Arial">Identifier_1</text>
   <text x="528" y="72" fill="#000000" font-size="10" font-family="Arial">&lt;pi&gt;</text>
   <defs>
      <linearGradient id="Gradient7" x1="0%" x2="100%" y1="0%" y2="100%" gradientUnits="objectBoundingBox">
         <stop offset="5%" stop-color="#ffffff"/>
         <stop offset="95%" stop-color="#e9ca83"/>
      </linearGradient>
   </defs>
   <rect x="1216" y="204" fill="url(#Gradient7)" width="321" height="129" stroke="#808040" stroke-width="1"/>
   <text x="1376" y="215" fill="#000000" font-size="10" font-family="Arial" text-anchor="middle">cliente</text>
   <line x1="1216" x2="1537" y1="221" y2="221" stroke="#808040" stroke-width="1"/>
   <text x="1221" y="231" fill="#000000" font-size="10" font-family="Arial" text-decoration="underline">id_cliente</text>
   <text x="1221" y="244" fill="#000000" font-size="10" font-family="Arial">id_ciudad</text>
   <text x="1221" y="257" fill="#000000" font-size="10" font-family="Arial">nombre_cliente</text>
   <text x="1221" y="270" fill="#000000" font-size="10" font-family="Arial">apellido_cliente</text>
   <text x="1221" y="283" fill="#000000" font-size="10" font-family="Arial">telefono_cliente</text>
   <text x="1221" y="296" fill="#000000" font-size="10" font-family="Arial">direccion_cliente</text>
   <text x="1221" y="309" fill="#000000" font-size="10" font-family="Arial">fecha_nacimiento_cliente</text>
   <text x="1352" y="231" fill="#000000" font-size="10" font-family="Arial" text-decoration="underline">&lt;pi&gt;</text>
   <text x="1352" y="244" fill="#000000" font-size="10" font-family="Arial">&lt;fi&gt;</text>
   <text x="1381" y="231" fill="#000000" font-size="10" font-family="Arial" text-decoration="underline">Serial</text>
   <text x="1381" y="244" fill="#000000" font-size="10" font-family="Arial">Integer</text>
   <text x="1381" y="257" fill="#000000" font-size="10" font-family="Arial">Variable characters (30)</text>
   <text x="1381" y="270" fill="#000000" font-size="10" font-family="Arial">Variable characters (15)</text>
   <text x="1381" y="283" fill="#000000" font-size="10" font-family="Arial">Variable characters (10)</text>
   <text x="1381" y="296" fill="#000000" font-size="10" font-family="Arial">Variable characters (250)</text>
   <text x="1381" y="309" fill="#000000" font-size="10" font-family="Arial">Date</text>
   <text x="1506" y="231" fill="#000000" font-size="10" font-family="Arial" text-decoration="underline">&lt;M&gt;</text>
   <text x="1506" y="244" fill="#000000" font-size="10" font-family="Arial">&lt;M&gt;</text>
   <text x="1506" y="257" fill="#000000" font-size="10" font-family="Arial">&lt;M&gt;</text>
   <text x="1506" y="270" fill="#000000" font-size="10" font-family="Arial">&lt;M&gt;</text>
   <text x="1506" y="283" fill="#000000" font-size="10" font-family="Arial">&lt;M&gt;</text>
   <text x="1506" y="296" fill="#000000" font-size="10" font-family="Arial">&lt;M&gt;</text>
   <text x="1506" y="309" fill="#000000" font-size="10" font-family="Arial">&lt;M&gt;</text>
   <line x1="1216" x2="1537" y1="316" y2="316" stroke="#808040" stroke-width="1"/>
   <text x="1221" y="326" fill="#000000" font-size="10" font-family="Arial">Identifier_1</text>
   <text x="1283" y="326" fill="#000000" font-size="10" font-family="Arial">&lt;pi&gt;</text>
   <defs>
      <linearGradient id="Gradient8" x1="0%" x2="100%" y1="0%" y2="100%" gradientUnits="objectBoundingBox">
         <stop offset="5%" stop-color="#ffffff"/>
         <stop offset="95%" stop-color="#e9ca83"/>
      </linearGradient>
   </defs>
   <rect x="455" y="674" fill="url(#Gradient8)" width="283" height="103" stroke="#808040" stroke-width="1"/>
   <text x="596" y="685" fill="#000000" font-size="10" font-family="Arial" text-anchor="middle">vehiculo</text>
   <line x1="455" x2="738" y1="691" y2="691" stroke="#808040" stroke-width="1"/>
   <text x="460" y="701" fill="#000000" font-size="10" font-family="Arial" text-decoration="underline">id_vehiculo</text>
   <text x="460" y="714" fill="#000000" font-size="10" font-family="Arial">id_estado_vehiculo</text>
   <text x="460" y="727" fill="#000000" font-size="10" font-family="Arial">matricula_vehiculo</text>
   <text x="460" y="740" fill="#000000" font-size="10" font-family="Arial">marca_vehiculo</text>
   <text x="460" y="753" fill="#000000" font-size="10" font-family="Arial">capacidad</text>
   <text x="560" y="701" fill="#000000" font-size="10" font-family="Arial" text-decoration="underline">&lt;pi&gt;</text>
   <text x="560" y="714" fill="#000000" font-size="10" font-family="Arial">&lt;fi&gt;</text>
   <text x="589" y="701" fill="#000000" font-size="10" font-family="Arial" text-decoration="underline">Serial</text>
   <text x="589" y="714" fill="#000000" font-size="10" font-family="Arial">Integer</text>
   <text x="589" y="727" fill="#000000" font-size="10" font-family="Arial">Variable characters (10)</text>
   <text x="589" y="740" fill="#000000" font-size="10" font-family="Arial">Variable characters (10)</text>
   <text x="589" y="753" fill="#000000" font-size="10" font-family="Arial">Number (3)</text>
   <text x="708" y="701" fill="#000000" font-size="10" font-family="Arial" text-decoration="underline">&lt;M&gt;</text>
   <text x="708" y="714" fill="#000000" font-size="10" font-family="Arial">&lt;M&gt;</text>
   <text x="708" y="727" fill="#000000" font-size="10" font-family="Arial">&lt;M&gt;</text>
   <text x="708" y="740" fill="#000000" font-size="10" font-family="Arial">&lt;M&gt;</text>
   <text x="708" y="753" fill="#000000" font-size="10" font-family="Arial">&lt;M&gt;</text>
   <line x1="455" x2="738" y1="760" y2="760" stroke="#808040" stroke-width="1"/>
   <text x="460" y="770" fill="#000000" font-size="10" font-family="Arial">Identifier_1</text>
   <text x="522" y="770" fill="#000000" font-size="10" font-family="Arial">&lt;pi&gt;</text>
   <defs>
      <linearGradient id="Gradient9" x1="0%" x2="100%" y1="0%" y2="100%" gradientUnits="objectBoundingBox">
         <stop offset="5%" stop-color="#ffffff"/>
         <stop offset="95%" stop-color="#e9ca83"/>
      </linearGradient>
   </defs>
   <rect x="442" y="861" fill="url(#Gradient9)" width="310" height="76" stroke="#808040" stroke-width="1"/>
   <text x="597" y="872" fill="#000000" font-size="10" font-family="Arial" text-anchor="middle">estado_vehiculo</text>
   <line x1="442" x2="752" y1="878" y2="878" stroke="#808040" stroke-width="1"/>
   <text x="446" y="888" fill="#000000" font-size="10" font-family="Arial" text-decoration="underline">id_estado_vehiculo</text>
   <text x="446" y="901" fill="#000000" font-size="10" font-family="Arial">nombre_estado_vehiculo</text>
   <text x="446" y="914" fill="#000000" font-size="10" font-family="Arial">detalle_estado_vehiculo</text>
   <text x="573" y="888" fill="#000000" font-size="10" font-family="Arial" text-decoration="underline">&lt;pi&gt;</text>
   <text x="602" y="888" fill="#000000" font-size="10" font-family="Arial" text-decoration="underline">Serial</text>
   <text x="602" y="901" fill="#000000" font-size="10" font-family="Arial">Variable characters (15)</text>
   <text x="602" y="914" fill="#000000" font-size="10" font-family="Arial">Variable characters (75)</text>
   <text x="721" y="888" fill="#000000" font-size="10" font-family="Arial" text-decoration="underline">&lt;M&gt;</text>
   <text x="721" y="901" fill="#000000" font-size="10" font-family="Arial">&lt;M&gt;</text>
   <text x="721" y="914" fill="#000000" font-size="10" font-family="Arial">&lt;M&gt;</text>
   <line x1="442" x2="752" y1="920" y2="920" stroke="#808040" stroke-width="1"/>
   <text x="446" y="930" fill="#000000" font-size="10" font-family="Arial">Identifier_1</text>
   <text x="508" y="930" fill="#000000" font-size="10" font-family="Arial">&lt;pi&gt;</text>
   <defs>
      <linearGradient id="Gradient10" x1="0%" x2="100%" y1="0%" y2="100%" gradientUnits="objectBoundingBox">
         <stop offset="5%" stop-color="#ffffff"/>
         <stop offset="95%" stop-color="#e9ca83"/>
      </linearGradient>
   </defs>
   <rect x="854" y="856" fill="url(#Gradient10)" width="317" height="90" stroke="#808040" stroke-width="1"/>
   <text x="1012" y="867" fill="#000000" font-size="10" font-family="Arial" text-anchor="middle">matenimiento</text>
   <line x1="854" x2="1171" y1="873" y2="873" stroke="#808040" stroke-width="1"/>
   <text x="858" y="883" fill="#000000" font-size="10" font-family="Arial" text-decoration="underline">id_matenimiento</text>
   <text x="858" y="896" fill="#000000" font-size="10" font-family="Arial">empresa_matenimiento</text>
   <text x="858" y="909" fill="#000000" font-size="10" font-family="Arial">costo_matenimiento</text>
   <text x="858" y="922" fill="#000000" font-size="10" font-family="Arial">descuento_mantenimiento</text>
   <text x="992" y="883" fill="#000000" font-size="10" font-family="Arial" text-decoration="underline">&lt;pi&gt;</text>
   <text x="1021" y="883" fill="#000000" font-size="10" font-family="Arial" text-decoration="underline">Serial</text>
   <text x="1021" y="896" fill="#000000" font-size="10" font-family="Arial">Variable characters (50)</text>
   <text x="1021" y="909" fill="#000000" font-size="10" font-family="Arial">Decimal (3,2)</text>
   <text x="1021" y="922" fill="#000000" font-size="10" font-family="Arial">Number (2)</text>
   <text x="1140" y="883" fill="#000000" font-size="10" font-family="Arial" text-decoration="underline">&lt;M&gt;</text>
   <text x="1140" y="896" fill="#000000" font-size="10" font-family="Arial">&lt;M&gt;</text>
   <text x="1140" y="909" fill="#000000" font-size="10" font-family="Arial">&lt;M&gt;</text>
   <text x="1140" y="922" fill="#000000" font-size="10" font-family="Arial">&lt;M&gt;</text>
   <line x1="854" x2="1171" y1="929" y2="929" stroke="#808040" stroke-width="1"/>
   <text x="858" y="939" fill="#000000" font-size="10" font-family="Arial">Identifier_1</text>
   <text x="920" y="939" fill="#000000" font-size="10" font-family="Arial">&lt;pi&gt;</text>
   <defs>
      <linearGradient id="Gradient11" x1="0%" x2="100%" y1="0%" y2="100%" gradientUnits="objectBoundingBox">
         <stop offset="5%" stop-color="#ffffff"/>
         <stop offset="95%" stop-color="#e9ca83"/>
      </linearGradient>
   </defs>
   <rect x="838" y="471" fill="url(#Gradient11)" width="241" height="77" stroke="#808040" stroke-width="1"/>
   <text x="958" y="482" fill="#000000" font-size="10" font-family="Arial" text-anchor="middle">mudanza</text>
   <line x1="838" x2="1079" y1="488" y2="488" stroke="#808040" stroke-width="1"/>
   <text x="843" y="498" fill="#000000" font-size="10" font-family="Arial" text-decoration="underline">id_mudanza</text>
   <text x="843" y="511" fill="#000000" font-size="10" font-family="Arial">costo_mudanza</text>
   <text x="843" y="524" fill="#000000" font-size="10" font-family="Arial">descuemto_mudanza</text>
   <text x="952" y="498" fill="#000000" font-size="10" font-family="Arial" text-decoration="underline">&lt;pi&gt;</text>
   <text x="981" y="498" fill="#000000" font-size="10" font-family="Arial" text-decoration="underline">Serial</text>
   <text x="981" y="511" fill="#000000" font-size="10" font-family="Arial">Money</text>
   <text x="981" y="524" fill="#000000" font-size="10" font-family="Arial">Number (2,0)</text>
   <text x="1050" y="498" fill="#000000" font-size="10" font-family="Arial" text-decoration="underline">&lt;M&gt;</text>
   <text x="1050" y="511" fill="#000000" font-size="10" font-family="Arial">&lt;M&gt;</text>
   <text x="1050" y="524" fill="#000000" font-size="10" font-family="Arial">&lt;M&gt;</text>
   <line x1="838" x2="1079" y1="531" y2="531" stroke="#808040" stroke-width="1"/>
   <text x="843" y="541" fill="#000000" font-size="10" font-family="Arial">Identifier_1</text>
   <text x="905" y="541" fill="#000000" font-size="10" font-family="Arial">&lt;pi&gt;</text>
   <defs>
      <linearGradient id="Gradient12" x1="0%" x2="100%" y1="0%" y2="100%" gradientUnits="objectBoundingBox">
         <stop offset="5%" stop-color="#ffffff"/>
         <stop offset="95%" stop-color="#e9ca83"/>
      </linearGradient>
   </defs>
   <rect x="1191" y="683" fill="url(#Gradient12)" width="290" height="90" stroke="#808040" stroke-width="1"/>
   <text x="1336" y="694" fill="#000000" font-size="10" font-family="Arial" text-anchor="middle">articulos</text>
   <line x1="1191" x2="1481" y1="700" y2="700" stroke="#808040" stroke-width="1"/>
   <text x="1195" y="710" fill="#000000" font-size="10" font-family="Arial" text-decoration="underline">id_articulo</text>
   <text x="1195" y="723" fill="#000000" font-size="10" font-family="Arial">nombre_articulo</text>
   <text x="1195" y="736" fill="#000000" font-size="10" font-family="Arial">descripcion_articulo</text>
   <text x="1195" y="749" fill="#000000" font-size="10" font-family="Arial">marca_articulo</text>
   <text x="1297" y="710" fill="#000000" font-size="10" font-family="Arial" text-decoration="underline">&lt;pi&gt;</text>
   <text x="1326" y="710" fill="#000000" font-size="10" font-family="Arial" text-decoration="underline">Serial</text>
   <text x="1326" y="723" fill="#000000" font-size="10" font-family="Arial">Variable characters (75)</text>
   <text x="1326" y="736" fill="#000000" font-size="10" font-family="Arial">Variable characters (250)</text>
   <text x="1326" y="749" fill="#000000" font-size="10" font-family="Arial">Variable characters (25)</text>
   <text x="1451" y="710" fill="#000000" font-size="10" font-family="Arial" text-decoration="underline">&lt;M&gt;</text>
   <text x="1451" y="723" fill="#000000" font-size="10" font-family="Arial">&lt;M&gt;</text>
   <text x="1451" y="736" fill="#000000" font-size="10" font-family="Arial">&lt;M&gt;</text>
   <line x1="1191" x2="1481" y1="756" y2="756" stroke="#808040" stroke-width="1"/>
   <text x="1195" y="766" fill="#000000" font-size="10" font-family="Arial">Identifier_1</text>
   <text x="1257" y="766" fill="#000000" font-size="10" font-family="Arial">&lt;pi&gt;</text>
   <defs>
      <linearGradient id="Gradient13" x1="0%" x2="100%" y1="0%" y2="100%" gradientUnits="objectBoundingBox">
         <stop offset="5%" stop-color="#ffffff"/>
         <stop offset="95%" stop-color="#eab515"/>
      </linearGradient>
   </defs>
   <rect x="880" y="685" fill="url(#Gradient13)" width="263" height="90" stroke="#800040" stroke-width="1"/>
   <text x="1011" y="696" fill="#000000" font-size="10" font-family="Arial" text-anchor="middle">detalle_mantenimiento</text>
   <line x1="880" x2="1143" y1="702" y2="702" stroke="#800040" stroke-width="1"/>
   <text x="884" y="712" fill="#000000" font-size="10" font-family="Arial" text-decoration="underline">id_matenimiento</text>
   <text x="884" y="725" fill="#000000" font-size="10" font-family="Arial" text-decoration="underline">id_vehiculo</text>
   <text x="884" y="738" fill="#000000" font-size="10" font-family="Arial">fecha_inicio_mantenimiento</text>
   <text x="884" y="751" fill="#000000" font-size="10" font-family="Arial">fecha_fin_mantenimiento</text>
   <text x="1028" y="712" fill="#000000" font-size="10" font-family="Arial" text-decoration="underline">&lt;pi,fi2&gt;</text>
   <text x="1028" y="725" fill="#000000" font-size="10" font-family="Arial" text-decoration="underline">&lt;pi,fi1&gt;</text>
   <text x="1072" y="712" fill="#000000" font-size="10" font-family="Arial" text-decoration="underline">Integer</text>
   <text x="1072" y="725" fill="#000000" font-size="10" font-family="Arial" text-decoration="underline">Integer</text>
   <text x="1072" y="738" fill="#000000" font-size="10" font-family="Arial">Date</text>
   <text x="1072" y="751" fill="#000000" font-size="10" font-family="Arial">Date</text>
   <text x="1113" y="712" fill="#000000" font-size="10" font-family="Arial" text-decoration="underline">&lt;M&gt;</text>
   <text x="1113" y="725" fill="#000000" font-size="10" font-family="Arial" text-decoration="underline">&lt;M&gt;</text>
   <text x="1113" y="738" fill="#000000" font-size="10" font-family="Arial">&lt;M&gt;</text>
   <text x="1113" y="751" fill="#000000" font-size="10" font-family="Arial">&lt;M&gt;</text>
   <line x1="880" x2="1143" y1="758" y2="758" stroke="#800040" stroke-width="1"/>
   <text x="884" y="768" fill="#000000" font-size="10" font-family="Arial">Identifier_1</text>
   <text x="946" y="768" fill="#000000" font-size="10" font-family="Arial">&lt;pi&gt;</text>
   <defs>
      <linearGradient id="Gradient14" x1="0%" x2="100%" y1="0%" y2="100%" gradientUnits="objectBoundingBox">
         <stop offset="5%" stop-color="#ffffff"/>
         <stop offset="95%" stop-color="#eab515"/>
      </linearGradient>
   </defs>
   <rect x="848" y="226" fill="url(#Gradient14)" width="222" height="90" stroke="#800040" stroke-width="1"/>
   <text x="959" y="237" fill="#000000" font-size="10" font-family="Arial" text-anchor="middle">detalle_mudanza</text>
   <line x1="848" x2="1070" y1="243" y2="243" stroke="#800040" stroke-width="1"/>
   <text x="853" y="253" fill="#000000" font-size="10" font-family="Arial" text-decoration="underline">id_mudanza</text>
   <text x="853" y="266" fill="#000000" font-size="10" font-family="Arial" text-decoration="underline">id_sucursal</text>
   <text x="853" y="279" fill="#000000" font-size="10" font-family="Arial">id_cliente</text>
   <text x="853" y="292" fill="#000000" font-size="10" font-family="Arial">id_estado_mudanza</text>
   <text x="957" y="253" fill="#000000" font-size="10" font-family="Arial" text-decoration="underline">&lt;pi,fi4&gt;</text>
   <text x="957" y="266" fill="#000000" font-size="10" font-family="Arial" text-decoration="underline">&lt;pi,fi1&gt;</text>
   <text x="957" y="279" fill="#000000" font-size="10" font-family="Arial">&lt;fi2&gt;</text>
   <text x="957" y="292" fill="#000000" font-size="10" font-family="Arial">&lt;fi3&gt;</text>
   <text x="1001" y="253" fill="#000000" font-size="10" font-family="Arial" text-decoration="underline">Integer</text>
   <text x="1001" y="266" fill="#000000" font-size="10" font-family="Arial" text-decoration="underline">Integer</text>
   <text x="1001" y="279" fill="#000000" font-size="10" font-family="Arial">Integer</text>
   <text x="1001" y="292" fill="#000000" font-size="10" font-family="Arial">Integer</text>
   <text x="1042" y="253" fill="#000000" font-size="10" font-family="Arial" text-decoration="underline">&lt;M&gt;</text>
   <text x="1042" y="266" fill="#000000" font-size="10" font-family="Arial" text-decoration="underline">&lt;M&gt;</text>
   <text x="1042" y="279" fill="#000000" font-size="10" font-family="Arial">&lt;M&gt;</text>
   <text x="1042" y="292" fill="#000000" font-size="10" font-family="Arial">&lt;M&gt;</text>
   <line x1="848" x2="1070" y1="299" y2="299" stroke="#800040" stroke-width="1"/>
   <text x="853" y="309" fill="#000000" font-size="10" font-family="Arial">Identifier_1</text>
   <text x="915" y="309" fill="#000000" font-size="10" font-family="Arial">&lt;pi&gt;</text>
   <defs>
      <linearGradient id="Gradient15" x1="0%" x2="100%" y1="0%" y2="100%" gradientUnits="objectBoundingBox">
         <stop offset="5%" stop-color="#ffffff"/>
         <stop offset="95%" stop-color="#e9ca83"/>
      </linearGradient>
   </defs>
   <rect x="797" y="73" fill="url(#Gradient15)" width="320" height="77" stroke="#808040" stroke-width="1"/>
   <text x="957" y="84" fill="#000000" font-size="10" font-family="Arial" text-anchor="middle">estado_mudanza</text>
   <line x1="797" x2="1117" y1="90" y2="90" stroke="#808040" stroke-width="1"/>
   <text x="801" y="100" fill="#000000" font-size="10" font-family="Arial" text-decoration="underline">id_estado_mudanza</text>
   <text x="801" y="113" fill="#000000" font-size="10" font-family="Arial">nombre_estado_mudanza</text>
   <text x="801" y="126" fill="#000000" font-size="10" font-family="Arial">detalle_estado_mudanza</text>
   <text x="932" y="100" fill="#000000" font-size="10" font-family="Arial" text-decoration="underline">&lt;pi&gt;</text>
   <text x="961" y="100" fill="#000000" font-size="10" font-family="Arial" text-decoration="underline">Serial</text>
   <text x="961" y="113" fill="#000000" font-size="10" font-family="Arial">Variable characters (15)</text>
   <text x="961" y="126" fill="#000000" font-size="10" font-family="Arial">Variable characters (150)</text>
   <text x="1086" y="100" fill="#000000" font-size="10" font-family="Arial" text-decoration="underline">&lt;M&gt;</text>
   <text x="1086" y="113" fill="#000000" font-size="10" font-family="Arial">&lt;M&gt;</text>
   <text x="1086" y="126" fill="#000000" font-size="10" font-family="Arial">&lt;M&gt;</text>
   <line x1="797" x2="1117" y1="133" y2="133" stroke="#808040" stroke-width="1"/>
   <text x="801" y="143" fill="#000000" font-size="10" font-family="Arial">Identifier_1</text>
   <text x="863" y="143" fill="#000000" font-size="10" font-family="Arial">&lt;pi&gt;</text>
   <defs>
      <linearGradient id="Gradient16" x1="0%" x2="100%" y1="0%" y2="100%" gradientUnits="objectBoundingBox">
         <stop offset="5%" stop-color="#ffffff"/>
         <stop offset="95%" stop-color="#eab515"/>
      </linearGradient>
   </defs>
   <rect x="1216" y="467" fill="url(#Gradient16)" width="238" height="90" stroke="#800040" stroke-width="1"/>
   <text x="1335" y="478" fill="#000000" font-size="10" font-family="Arial" text-anchor="middle">detalle_articulos</text>
   <line x1="1216" x2="1454" y1="484" y2="484" stroke="#800040" stroke-width="1"/>
   <text x="1221" y="494" fill="#000000" font-size="10" font-family="Arial" text-decoration="underline">id_articulo</text>
   <text x="1221" y="507" fill="#000000" font-size="10" font-family="Arial" text-decoration="underline">id_mudanza</text>
   <text x="1221" y="520" fill="#000000" font-size="10" font-family="Arial">cantidad_articulo</text>
   <text x="1221" y="533" fill="#000000" font-size="10" font-family="Arial">peso_articulo</text>
   <text x="1311" y="494" fill="#000000" font-size="10" font-family="Arial" text-decoration="underline">&lt;pi,fi2&gt;</text>
   <text x="1311" y="507" fill="#000000" font-size="10" font-family="Arial" text-decoration="underline">&lt;pi,fi1&gt;</text>
   <text x="1355" y="494" fill="#000000" font-size="10" font-family="Arial" text-decoration="underline">Integer</text>
   <text x="1355" y="507" fill="#000000" font-size="10" font-family="Arial" text-decoration="underline">Integer</text>
   <text x="1355" y="520" fill="#000000" font-size="10" font-family="Arial">Number (3)</text>
   <text x="1355" y="533" fill="#000000" font-size="10" font-family="Arial">Decimal (3,2)</text>
   <text x="1426" y="494" fill="#000000" font-size="10" font-family="Arial" text-decoration="underline">&lt;M&gt;</text>
   <text x="1426" y="507" fill="#000000" font-size="10" font-family="Arial" text-decoration="underline">&lt;M&gt;</text>
   <text x="1426" y="520" fill="#000000" font-size="10" font-family="Arial">&lt;M&gt;</text>
   <text x="1426" y="533" fill="#000000" font-size="10" font-family="Arial">&lt;M&gt;</text>
   <line x1="1216" x2="1454" y1="540" y2="540" stroke="#800040" stroke-width="1"/>
   <text x="1221" y="550" fill="#000000" font-size="10" font-family="Arial">Identifier_1</text>
   <text x="1283" y="550" fill="#000000" font-size="10" font-family="Arial">&lt;pi&gt;</text>
   <defs>
      <linearGradient id="Gradient17" x1="0%" x2="100%" y1="0%" y2="100%" gradientUnits="objectBoundingBox">
         <stop offset="5%" stop-color="#ffffff"/>
         <stop offset="95%" stop-color="#e9ca83"/>
      </linearGradient>
   </defs>
   <rect x="37" y="16" fill="url(#Gradient17)" width="275" height="64" stroke="#808040" stroke-width="1"/>
   <text x="174" y="27" fill="#000000" font-size="10" font-family="Arial" text-anchor="middle">provincia</text>
   <line x1="37" x2="312" y1="33" y2="33" stroke="#808040" stroke-width="1"/>
   <text x="42" y="43" fill="#000000" font-size="10" font-family="Arial" text-decoration="underline">id_provincia</text>
   <text x="42" y="56" fill="#000000" font-size="10" font-family="Arial">nombre_provincia</text>
   <text x="135" y="43" fill="#000000" font-size="10" font-family="Arial" text-decoration="underline">&lt;pi&gt;</text>
   <text x="164" y="43" fill="#000000" font-size="10" font-family="Arial" text-decoration="underline">Serial</text>
   <text x="164" y="56" fill="#000000" font-size="10" font-family="Arial">Variable characters (50)</text>
   <text x="283" y="43" fill="#000000" font-size="10" font-family="Arial" text-decoration="underline">&lt;M&gt;</text>
   <text x="283" y="56" fill="#000000" font-size="10" font-family="Arial">&lt;M&gt;</text>
   <line x1="37" x2="312" y1="63" y2="63" stroke="#808040" stroke-width="1"/>
   <text x="42" y="73" fill="#000000" font-size="10" font-family="Arial">Identifier_1</text>
   <text x="104" y="73" fill="#000000" font-size="10" font-family="Arial">&lt;pi&gt;</text>
</svg>
